<svg width="479" height="313" viewBox="0 0 479 313" fill="none" xmlns="http://www.w3.org/2000/svg">
<g clip-path="url(#clip0_43_14)">
<path d="M362.917 125.319L475.258 27.2818C480.272 22.8987 476.38 14.6571 469.794 15.781L465.042 16.5677C453.505 18.4916 442.685 23.4424 433.682 30.9156L305.812 135.247L362.917 125.319Z" fill="#FBC21A"/>
<path d="M470.692 15.6686L364.264 96.1367H338.069C338.069 96.1367 408.497 43.278 429.341 28.518C446.78 16.193 461.225 14.9943 470.692 15.6686V15.6686Z" fill="#1A6CA2"/>
<path d="M300.348 70.9623C300.348 70.9623 246.61 82.1259 157.733 128.841C80.981 169.225 79.2595 167.576 79.2595 167.576C79.2595 167.576 27.6548 189.379 28.2161 197.658C28.7774 205.937 34.2784 220.847 43.11 222.495C51.9416 224.144 205.858 210.021 219.629 207.586C259.895 200.393 320.855 183.61 362.917 166.94C404.98 150.269 435.703 125.357 443.973 99.3958C443.973 99.3958 449.063 86.0969 434.169 86.0969C419.275 86.0969 354.348 89.1687 354.348 89.1687C354.348 89.1687 322.951 66.5418 300.348 70.9623V70.9623Z" fill="#CFD8DC"/>
<path d="M420.959 115.917C420.959 115.917 400.676 133.898 380.805 142.664C348.248 157.012 255.591 184.322 225.429 191.739C202.378 197.434 155.6 207.436 133.147 208.747C103.397 210.433 91.9456 190.728 79.2595 167.539C68.9685 148.733 53.5881 112.695 46.3657 96.9233C45.6467 95.3562 44.343 94.1334 42.7341 93.5171C41.1251 92.9009 39.339 92.9402 37.7587 93.6267L21.2556 100.707C18.5613 101.868 16.9147 104.678 17.2889 107.6L28.8149 200.955C28.8149 200.955 30.4614 219.723 43.1474 222.496C55.8335 225.268 156.76 214.778 190.44 213.093C224.12 211.407 310.976 189.192 362.955 166.902C414.934 144.612 424.402 130.339 433.682 118.651C433.645 118.689 427.021 118.127 420.959 115.917V115.917Z" fill="#1A6CA2"/>
<path d="M83.9373 185.521C83.9373 185.521 80.6441 178.328 61.8583 185.521C43.0726 192.713 30.9853 196.572 30.9853 196.572L2.28272 216.164C-0.972982 218.375 0.898112 223.469 4.82741 223.02L20.0581 221.372C20.5314 221.332 20.9907 221.191 21.4053 220.96C27.2057 217.85 72.0745 193.762 83.9373 185.521Z" fill="#FBC21A"/>
<path d="M346.489 90.4799C346.489 90.4799 317.936 108.761 304.277 124.083C304.277 124.083 298.888 127.38 294.36 120.787C289.795 114.156 280.739 95.5747 287.774 89.2437C294.809 82.9126 307.121 73.9217 314.157 75.4951C330.472 79.1289 346.489 90.4799 346.489 90.4799V90.4799Z" fill="#1A6CA2"/>
<path d="M433.57 119.026C432.971 118.988 416.056 118.501 413.399 104.978C410.855 91.9784 417.254 86.8086 417.254 86.8086C417.254 86.8086 443.636 83.4745 447.117 90.5923C452.056 100.857 433.57 119.026 433.57 119.026V119.026Z" fill="#64878E"/>
<path d="M256.976 135.247C264.334 135.247 270.298 129.276 270.298 121.91C270.298 114.545 264.334 108.574 256.976 108.574C249.618 108.574 243.654 114.545 243.654 121.91C243.654 129.276 249.618 135.247 256.976 135.247Z" fill="#1A6CA2"/>
<path d="M214.091 147.534C220.332 147.534 225.392 142.469 225.392 136.221C225.392 129.973 220.332 124.907 214.091 124.907C207.849 124.907 202.789 129.973 202.789 136.221C202.789 142.469 207.849 147.534 214.091 147.534Z" fill="#1A6CA2"/>
<path d="M177.118 157.125C182.326 157.125 186.548 152.898 186.548 147.684C186.548 142.47 182.326 138.244 177.118 138.244C171.91 138.244 167.687 142.47 167.687 147.684C167.687 152.898 171.91 157.125 177.118 157.125Z" fill="#1A6CA2"/>
<path d="M303.342 186.832C303.342 186.832 299.3 166.115 270.298 168.925C241.296 171.735 181.496 193.95 181.496 193.95L42.3615 290.751C38.1329 293.673 38.6194 300.079 43.2597 302.327C51.9406 306.586 61.5229 308.679 71.1874 308.424C80.8518 308.17 90.311 305.576 98.7563 300.866L303.342 186.832Z" fill="#1A6CA2"/>
<path d="M261.953 163.793L51.1557 314.277H81.0932L321.828 182.336L305.812 163.793H261.953Z" fill="#FBC21A"/>
</g>
<defs>
<clipPath id="clip0_43_14">
<rect width="479" height="313" fill="white"/>
</clipPath>
</defs>
</svg>
