<svg width="181" height="48" viewBox="0 0 181 48" fill="none" xmlns="http://www.w3.org/2000/svg">
<g clip-path="url(#clip0_9_6)">
<path d="M8.33333 15.3333L16 17.5467L24.4267 11.4267L12.3333 11.7733C12.2149 11.7798 12.1002 11.8165 12 11.88L8.17333 14.08C8.0543 14.146 7.95779 14.2461 7.89628 14.3675C7.83478 14.4889 7.81112 14.6259 7.82835 14.7609C7.84558 14.8959 7.90292 15.0226 7.99295 15.1247C8.08297 15.2267 8.20154 15.2994 8.33333 15.3333Z" fill="#2E89B4"/>
<path d="M46.0267 8.48L37.6267 6.66667C36.9202 6.5133 36.1891 6.5137 35.4828 6.66784C34.7765 6.82198 34.1116 7.12625 33.5333 7.56L8.16 26L2.06667 25.7333C1.71765 25.7215 1.37372 25.8195 1.08344 26.0137C0.793163 26.2078 0.571206 26.4883 0.44891 26.8154C0.326613 27.1425 0.310155 27.4997 0.401861 27.8367C0.493566 28.1737 0.688802 28.4733 0.959999 28.6933L6.89333 33.4C6.99101 33.4788 7.10728 33.5312 7.23101 33.5522C7.35473 33.5732 7.48178 33.5621 7.6 33.52C9.29333 32.8667 15.6 29.52 23.0533 25.4267L24.5467 40.7733C24.5593 40.9062 24.6081 41.0332 24.6876 41.1404C24.7671 41.2477 24.8744 41.3312 24.9979 41.382C25.1213 41.4327 25.2563 41.4488 25.3883 41.4285C25.5203 41.4082 25.6442 41.3522 25.7467 41.2667L29.08 38.4933C29.2625 38.3403 29.3852 38.1279 29.4267 37.8933L32.5867 20.1733C37.92 17.2133 43.0133 14.3467 46.6 12.32C46.9722 12.1175 47.2732 11.8054 47.4621 11.4261C47.651 11.0468 47.7188 10.6186 47.6562 10.1995C47.5936 9.7804 47.4038 9.39066 47.1123 9.08309C46.8208 8.77552 46.4418 8.56498 46.0267 8.48Z" fill="#2E89B4"/>
</g>
<path d="M56.4688 11.5781H78.3125V15.9219H61.4219V22.3125H75.7656V26.3906H61.4219V36H56.4688V11.5781ZM83.0938 11.5781H88.0469V31.6562H102.25V36H83.0938V11.5781ZM106.438 11.5781H111.422V36H106.438V11.5781ZM118.891 28.7344C119.776 29.2344 120.672 29.6875 121.578 30.0938C122.495 30.4896 123.443 30.8281 124.422 31.1094C125.401 31.3802 126.427 31.5885 127.5 31.7344C128.583 31.8802 129.734 31.9531 130.953 31.9531C132.422 31.9531 133.672 31.8594 134.703 31.6719C135.734 31.474 136.573 31.2083 137.219 30.875C137.875 30.5312 138.349 30.125 138.641 29.6562C138.943 29.1875 139.094 28.6771 139.094 28.125C139.094 27.2396 138.724 26.5417 137.984 26.0312C137.245 25.5104 136.104 25.25 134.562 25.25C133.885 25.25 133.172 25.2969 132.422 25.3906C131.672 25.474 130.911 25.5677 130.141 25.6719C129.38 25.776 128.625 25.875 127.875 25.9688C127.135 26.0521 126.438 26.0938 125.781 26.0938C124.688 26.0938 123.635 25.9531 122.625 25.6719C121.625 25.3906 120.734 24.9688 119.953 24.4062C119.182 23.8438 118.568 23.1406 118.109 22.2969C117.651 21.4531 117.422 20.4688 117.422 19.3438C117.422 18.6771 117.51 18.0156 117.688 17.3594C117.875 16.7031 118.167 16.0781 118.562 15.4844C118.969 14.8802 119.49 14.3229 120.125 13.8125C120.76 13.2917 121.526 12.8438 122.422 12.4688C123.328 12.0938 124.37 11.8021 125.547 11.5938C126.734 11.375 128.083 11.2656 129.594 11.2656C130.688 11.2656 131.786 11.3281 132.891 11.4531C133.995 11.5677 135.068 11.7344 136.109 11.9531C137.161 12.1719 138.172 12.4375 139.141 12.75C140.109 13.0521 141.01 13.3906 141.844 13.7656L139.672 17.7656C138.984 17.4635 138.245 17.1875 137.453 16.9375C136.661 16.6771 135.833 16.4531 134.969 16.2656C134.104 16.0781 133.208 15.9323 132.281 15.8281C131.365 15.7135 130.427 15.6562 129.469 15.6562C128.104 15.6562 126.979 15.7552 126.094 15.9531C125.219 16.151 124.521 16.4062 124 16.7188C123.479 17.0208 123.115 17.3646 122.906 17.75C122.708 18.125 122.609 18.5 122.609 18.875C122.609 19.6042 122.938 20.2031 123.594 20.6719C124.25 21.1302 125.25 21.3594 126.594 21.3594C127.135 21.3594 127.755 21.3229 128.453 21.25C129.161 21.1667 129.901 21.0781 130.672 20.9844C131.453 20.8906 132.245 20.8073 133.047 20.7344C133.859 20.651 134.646 20.6094 135.406 20.6094C136.844 20.6094 138.115 20.7708 139.219 21.0938C140.333 21.4167 141.266 21.8802 142.016 22.4844C142.766 23.0781 143.333 23.8021 143.719 24.6562C144.104 25.5 144.297 26.4479 144.297 27.5C144.297 28.9062 143.969 30.1615 143.312 31.2656C142.667 32.3594 141.74 33.2865 140.531 34.0469C139.333 34.7969 137.885 35.3698 136.188 35.7656C134.49 36.151 132.599 36.3438 130.516 36.3438C129.141 36.3438 127.797 36.2552 126.484 36.0781C125.172 35.9115 123.911 35.6719 122.703 35.3594C121.505 35.0365 120.359 34.6562 119.266 34.2188C118.182 33.7708 117.177 33.2812 116.25 32.75L118.891 28.7344ZM149.75 11.5781H154.703V24.2188L167.594 11.5781H173.938L161.906 23.2344L173.938 36H167.344L158.344 26.6875L154.703 30.2031V36H149.75V11.5781ZM175.75 11.5781H180.734V36H175.75V11.5781Z" fill="#0D102B"/>
<defs>
<clipPath id="clip0_9_6">
<rect width="48" height="48" fill="white"/>
</clipPath>
</defs>
</svg>
